<?xml version="1.0" standalone="no"?>
<!DOCTYPE svg PUBLIC "-//W3C//DTD SVG 20010904//EN"
 "http://www.w3.org/TR/2001/REC-SVG-20010904/DTD/svg10.dtd">
<svg version="1.0" xmlns="http://www.w3.org/2000/svg"
 width="289.000000pt" height="304.000000pt" viewBox="0 0 289.000000 304.000000"
 preserveAspectRatio="xMidYMid meet">
<metadata>
Created by potrace 1.16, written by Peter Selinger 2001-2019
</metadata>
<g transform="translate(0.000000,304.000000) scale(0.100000,-0.100000)"
fill="#000000" stroke="none">
<path d="M1242 2401 c-219 -55 -420 -216 -517 -414 -124 -254 -94 -568 78
-792 25 -33 177 -190 337 -350 l290 -290 328 330 c304 306 331 336 369 410 59
115 84 204 90 320 8 141 -13 240 -79 375 -44 89 -65 118 -138 191 -98 99 -203
166 -325 206 -109 36 -321 43 -433 14z m314 -92 c191 -35 383 -172 477 -341
96 -172 105 -404 22 -585 -43 -95 -86 -146 -354 -416 l-265 -268 -264 263
c-288 288 -338 350 -386 487 -27 76 -30 99 -31 201 0 132 20 215 80 320 143
253 436 391 721 339z"/>
<path d="M1350 1921 c-72 -22 -147 -86 -182 -156 -29 -56 -35 -158 -14 -223
22 -64 79 -130 147 -167 46 -25 65 -29 129 -30 62 0 85 5 132 28 107 53 163
144 162 267 0 64 -4 83 -29 129 -36 66 -102 125 -162 145 -48 17 -140 20 -183
7z m197 -128 c51 -41 73 -82 80 -145 14 -144 -148 -253 -276 -186 -119 62
-149 205 -63 300 50 55 84 69 159 65 52 -2 69 -8 100 -34z"/>
</g>
</svg>
